<svg version="1.0" xmlns="http://www.w3.org/2000/svg" width="1103.000000pt" height="960.000000pt"
        viewBox="0 0 1103.000000 960.000000" preserveAspectRatio="xMidYMid meet">

        <g transform="translate(0.000000,960.000000) scale(0.100000,-0.100000)" fill="#eeeeee" stroke="none">
            <path d="M5789 9130 c-782 -49 -1511 -291 -2162 -716 -402 -263 -789 -616
-1073 -979 -95 -121 -305 -435 -376 -560 -316 -557 -506 -1183 -559 -1838 -17
-218 -7 -658 21 -867 54 -409 155 -785 312 -1154 59 -140 217 -455 250 -498
l16 -23 143 33 c78 18 144 34 146 35 2 2 -20 44 -48 93 -330 571 -528 1225
-556 1831 l-6 143 259 2 259 3 3 59 c2 32 -1 63 -5 67 -4 4 -122 9 -261 10
l-252 1 0 81 c0 158 31 419 77 647 101 506 280 951 566 1413 341 551 853 1039
1449 1383 764 441 1716 632 2581 519 929 -122 1752 -519 2410 -1164 735 -719
1181 -1713 1233 -2747 l7 -135 -252 2 c-160 1 -256 -2 -262 -8 -6 -6 -9 -37
-7 -69 l3 -59 259 -3 259 -2 -7 -128 c-18 -330 -91 -713 -199 -1042 -152 -462
-413 -937 -741 -1350 -115 -144 -444 -477 -591 -599 -660 -545 -1380 -858
-2205 -957 -197 -24 -626 -24 -835 -1 -287 32 -556 89 -819 173 -240 77 -590
234 -812 365 -213 125 -512 339 -626 447 l-37 35 -153 -43 c-84 -23 -159 -45
-167 -50 -9 -5 26 -41 115 -120 660 -579 1443 -950 2267 -1076 283 -43 714
-57 992 -34 1029 89 2008 552 2761 1308 786 788 1249 1777 1335 2847 15 187 7
610 -15 790 -99 810 -393 1546 -872 2182 -171 226 -468 539 -684 718 -700 581
-1521 928 -2413 1020 -184 19 -548 26 -728 15z" />
            <path d="M5847 8237 c-114 -265 -207 -485 -207 -490 0 -13 20 -7 220 72 l200
79 208 -83 c114 -45 208 -79 210 -75 4 10 -411 979 -418 980 -3 0 -99 -217
-213 -483z" />
            <path d="M5334 8655 c-5 -12 29 -249 42 -297 7 -22 43 -24 51 -2 5 14 -32 270
-44 301 -7 18 -42 16 -49 -2z" />
            <path d="M6736 8662 c-10 -16 -57 -303 -51 -312 8 -12 42 -13 49 -1 3 4 17 75
31 156 20 118 23 150 13 157 -17 10 -35 10 -42 0z" />
            <path d="M4663 8475 c-3 -9 17 -77 44 -153 42 -113 54 -138 72 -140 12 -2 24
3 27 11 4 12 -43 159 -91 280 -9 21 -44 23 -52 2z" />
            <path d="M7396 8458 c-43 -105 -87 -239 -84 -255 4 -25 43 -29 53 -6 3 10 26
75 50 144 32 93 40 130 32 138 -19 19 -38 12 -51 -21z" />
            <path d="M4027 8187 l-29 -23 92 -158 c50 -87 96 -167 103 -177 15 -24 45 -24
76 0 31 23 30 25 -87 226 -95 163 -106 172 -155 132z" />
            <path d="M8012 8183 c-17 -26 -154 -260 -181 -310 -10 -20 -7 -25 26 -48 21
-14 41 -25 45 -25 8 0 208 348 208 364 0 12 -50 46 -68 46 -6 0 -19 -12 -30
-27z" />
            <path d="M3467 7792 c-16 -17 -12 -25 80 -135 95 -114 119 -131 142 -103 9 11
-9 38 -90 135 -57 66 -105 121 -109 121 -4 0 -14 -8 -23 -18z" />
            <path d="M8525 7695 c-98 -116 -113 -150 -67 -150 16 0 46 30 112 110 49 60
90 115 90 122 0 7 -9 17 -20 23 -17 9 -30 -3 -115 -105z" />
            <path d="M2987 7324 c-4 -4 -7 -13 -7 -20 0 -11 193 -189 226 -207 16 -9 44 8
44 27 0 15 -217 200 -239 204 -9 2 -20 0 -24 -4z" />
            <path d="M8985 7235 c-60 -52 -111 -98 -113 -103 -1 -4 4 -16 11 -26 18 -24
20 -22 151 92 70 61 106 99 104 110 -7 38 -44 21 -153 -73z" />
            <path d="M2574 6764 l-19 -36 24 -17 c80 -56 345 -210 352 -205 16 9 41 65 36
78 -7 17 -337 216 -358 216 -9 0 -24 -16 -35 -36z" />
            <path d="M9325 6697 c-183 -110 -193 -121 -153 -170 l23 -27 170 101 c94 55
176 107 184 114 12 11 11 18 -6 47 -10 18 -26 34 -34 35 -7 2 -90 -43 -184
-100z" />
            <path d="M8301 6565 c-93 -21 -156 -43 -246 -87 -169 -84 -301 -188 -594 -471
-80 -76 -173 -164 -208 -194 l-63 -56 -158 31 c-86 17 -393 77 -682 132 -289
56 -678 130 -865 167 -237 45 -354 64 -387 61 -59 -6 -125 -46 -242 -146 -101
-85 -109 -109 -48 -145 36 -21 202 -103 1176 -578 258 -126 471 -231 474 -234
6 -6 -6 -19 -442 -484 -199 -211 -364 -388 -367 -393 -3 -5 -166 5 -362 22
-196 17 -369 28 -384 24 -49 -12 -86 -35 -171 -107 -95 -80 -98 -83 -82 -102
6 -8 150 -82 318 -165 168 -83 308 -152 309 -154 2 -2 -15 -77 -37 -167 -22
-90 -39 -167 -38 -170 2 -4 74 11 162 32 87 22 159 39 161 37 1 -2 46 -109 98
-239 109 -269 166 -399 177 -399 12 0 181 133 214 168 19 21 30 44 33 74 3 24
-2 181 -11 350 -9 169 -16 326 -16 350 0 43 1 44 107 128 102 81 581 471 744
606 l76 64 78 -198 c288 -729 596 -1497 610 -1518 8 -13 22 -24 31 -24 9 0 67
50 129 111 138 135 160 176 152 284 -3 38 -26 232 -51 430 -48 372 -191 1465
-202 1545 l-6 45 244 235 c392 378 502 506 578 673 68 151 91 323 52 397 -38
72 -126 94 -261 65z" />
            <path d="M2284 6125 c-4 -8 -4 -21 -1 -28 4 -12 245 -117 267 -117 17 0 31 37
17 48 -14 12 -255 112 -269 112 -5 0 -11 -7 -14 -15z" />
            <path d="M9673 6083 c-73 -30 -133 -61 -133 -68 0 -7 7 -18 15 -25 12 -10 39
-3 145 40 72 29 133 56 136 61 8 14 -6 49 -19 48 -7 0 -72 -25 -144 -56z" />
            <path d="M2097 5439 c-4 -14 1 -23 16 -29 37 -15 268 -61 278 -55 12 8 12 42
0 49 -14 9 -238 56 -265 56 -15 0 -26 -7 -29 -21z" />
            <path d="M9841 5432 c-69 -15 -126 -32 -128 -37 -2 -6 2 -18 9 -28 12 -15 21
-15 136 8 162 32 164 32 160 58 -4 31 -31 30 -177 -1z" />
            <path d="M1364 4738 c-176 -153 -407 -399 -560 -598 -335 -433 -524 -886 -524
-1256 0 -363 181 -644 526 -817 353 -178 959 -211 1575 -87 579 117 1281 391
2007 787 258 140 662 384 662 400 0 3 -12 30 -26 59 -21 43 -26 67 -26 129 0
41 8 100 17 131 34 118 2 112 -232 -44 -943 -629 -1941 -1053 -2700 -1146
-457 -56 -818 -8 -1089 145 -116 65 -256 207 -313 317 -164 319 -115 721 148
1204 121 222 253 410 474 676 70 83 126 152 124 152 -2 0 -30 -23 -63 -52z" />
            <path d="M1325 4328 c-304 -338 -501 -695 -561 -1013 -32 -176 -6 -361 74
-510 26 -47 170 -210 179 -201 2 2 -14 28 -36 57 -56 74 -98 179 -118 296 -14
84 -14 114 -5 208 32 304 172 628 487 1131 47 75 84 138 83 140 -2 2 -49 -47
-103 -108z" />
            <path d="M2235 4044 c-60 -13 -115 -26 -122 -28 -17 -7 -17 -45 0 -51 6 -3 73
8 147 23 131 27 135 29 138 55 3 24 0 27 -25 26 -15 0 -77 -11 -138 -25z" />
            <path d="M9717 4063 c-13 -13 -7 -42 11 -47 43 -13 274 -58 277 -54 3 2 6 15
7 28 3 24 -2 26 -127 52 -140 29 -158 32 -168 21z" />
            <path d="M2417 3405 c-71 -29 -130 -55 -132 -57 -7 -7 7 -48 17 -48 23 0 271
106 275 117 5 13 -14 44 -26 42 -3 0 -64 -24 -134 -54z" />
            <path d="M9544 3446 c-3 -9 -4 -22 -1 -29 5 -13 240 -117 264 -117 12 0 29 38
20 46 -5 6 -225 99 -255 108 -16 5 -24 3 -28 -8z" />
            <path d="M5376 3131 c-11 -17 -326 -222 -521 -338 -345 -206 -629 -356 -945
-500 -631 -287 -1198 -465 -1727 -543 -272 -39 -696 -44 -923 -10 -284 43
-531 144 -745 305 l-40 30 47 -54 c220 -254 602 -422 1074 -471 154 -17 501
-14 679 5 736 78 1541 337 2435 784 394 196 837 459 825 490 -3 9 -34 82 -67
164 -55 133 -76 164 -92 138z" />
            <path d="M2747 2856 c-92 -56 -174 -109 -182 -117 -13 -13 -12 -19 11 -52 14
-21 28 -36 32 -34 44 25 350 212 359 221 10 9 8 19 -12 49 -14 20 -29 37 -33
37 -4 -1 -82 -47 -175 -104z" />
            <path d="M9161 2932 c-11 -17 -21 -36 -21 -44 0 -14 344 -228 367 -228 16 0
57 70 47 80 -11 10 -342 210 -359 216 -7 3 -22 -8 -34 -24z" />
            <path d="M8872 2338 c-6 -6 -12 -15 -12 -19 0 -4 55 -51 122 -104 96 -78 124
-96 137 -88 9 6 17 16 18 24 2 14 -214 191 -239 197 -8 1 -19 -3 -26 -10z" />
            <path d="M8420 1885 c-6 -8 -10 -18 -8 -23 6 -17 183 -221 196 -226 18 -8 42
4 42 21 0 16 -196 243 -209 243 -5 0 -14 -7 -21 -15z" />
            <path d="M7837 1581 c-15 -10 -29 -20 -32 -23 -5 -5 158 -295 197 -350 18 -26
21 -27 47 -14 58 30 58 30 -53 222 -56 98 -109 180 -117 181 -8 1 -26 -6 -42
-16z" />
            <path d="M4142 1457 c-85 -142 -122 -211 -122 -226 0 -12 62 -51 72 -45 6 4
181 294 215 356 5 9 -56 48 -74 48 -7 0 -48 -60 -91 -133z" />
            <path d="M4772 1217 c-5 -7 -32 -73 -61 -147 -47 -125 -50 -136 -34 -148 9 -7
22 -11 27 -9 10 3 46 88 101 233 l23 62 -23 10 c-17 8 -26 8 -33 -1z" />
            <path d="M7303 1223 c-20 -8 -16 -25 37 -160 63 -160 62 -158 89 -143 26 13
27 6 -41 183 -47 120 -56 132 -85 120z" />
            <path d="M6033 1123 l-43 -4 0 -250 0 -249 65 0 65 0 -2 253 c-3 284 5 258
-85 250z" />
            <path d="M5385 1038 c-9 -25 -56 -300 -53 -304 3 -2 15 -5 28 -6 24 -3 25 1
54 151 24 128 27 154 15 162 -20 12 -39 11 -44 -3z" />
            <path d="M6675 1040 c-8 -12 43 -290 57 -306 14 -19 48 -4 47 20 0 11 -12 82
-27 156 -24 121 -29 135 -49 138 -11 2 -24 -2 -28 -8z" />
        </g>
    </svg>